<svg data-v-423bf9ae="" xmlns="http://www.w3.org/2000/svg" viewBox="0 0 121.37809312309813 60" class="font"><!----><!----><!----><g data-v-423bf9ae="" id="f32cb561-267e-4c75-af3b-8280329ead2d" fill="#d32d1a" transform="matrix(10.600706999565286,0,0,10.600706999565286,4.7703189057728395,-83.10954449413137)"><path d="M3.98 8.69C3.98 8.01 3.54 7.84 3.11 7.84C1.46 7.84-0.45 10.21-0.45 11.87C-0.45 12.78 0.13 13.50 1.26 13.50C2.65 13.50 4.10 12.42 4.86 10.74L4.69 10.61C3.99 11.96 2.74 13.09 1.55 13.09C0.69 13.09 0.45 12.49 0.45 11.91C0.45 11.77 0.46 11.59 0.50 11.41C2.10 11.26 3.98 10.12 3.98 8.69ZM3.07 8.27C3.30 8.27 3.36 8.39 3.36 8.60C3.36 9.80 1.57 10.79 0.57 11.14C0.95 9.81 2.17 8.27 3.07 8.27ZM8.29 9.09C7.76 10.14 6.61 12.74 5.74 12.74C5.28 12.74 5.24 12.04 5.24 11.80C5.24 10.86 5.87 9.46 6.17 8.99C6.02 8.82 5.75 8.71 5.66 8.71C5.24 8.71 4.42 10.82 4.42 11.89C4.42 12.64 4.84 13.30 5.47 13.30C6.17 13.30 6.79 12.49 7.31 11.56C7.25 11.80 7.21 12.04 7.21 12.26C7.21 12.84 7.45 13.30 8.19 13.30C9.18 13.30 10.40 12.25 11.00 10.74L10.82 10.61C10.14 12.05 9.07 12.88 8.48 12.88C8.15 12.88 8.02 12.66 8.02 12.32C8.02 11.38 8.96 9.60 8.96 9.45C8.96 9.21 8.44 9.11 8.29 9.09Z"></path></g><!----><!----></svg>